<svg width="165" height="86" viewBox="0 0 165 86" fill="none" xmlns="http://www.w3.org/2000/svg">
<rect x="79.9471" width="5.17418" height="22.7664" rx="0.206967" fill="url(#paint0_linear_1_1104)"/>
<rect x="79.9471" y="28.9754" width="5.17418" height="17.5922" rx="0.206967" fill="url(#paint1_linear_1_1104)"/>
<path d="M87.1909 6.42921C87.1909 6.3353 87.2541 6.25317 87.3449 6.22914L91.0703 5.243C91.2016 5.20824 91.3302 5.30725 91.3302 5.44308V23.5323C91.3302 23.6682 91.2016 23.7672 91.0703 23.7324L87.3449 22.7463C87.2541 22.7223 87.1909 22.6401 87.1909 22.5462V6.42921Z" fill="white"/>
<path d="M93.3999 9.47512C93.3999 9.38015 93.4646 9.29736 93.5567 9.27433L97.2821 8.34298C97.4127 8.31032 97.5393 8.40912 97.5393 8.54377V25.6058C97.5393 25.7405 97.4127 25.8393 97.2821 25.8066L93.5567 24.8752C93.4646 24.8522 93.3999 24.7694 93.3999 24.6745V9.47512Z" fill="white"/>
<path d="M73.738 5.44308C73.738 5.30725 73.8667 5.20824 73.998 5.243L77.7234 6.22914C77.8142 6.25317 77.8774 6.3353 77.8774 6.42921V22.5462C77.8774 22.6401 77.8142 22.7223 77.7234 22.7463L73.998 23.7324C73.8667 23.7672 73.738 23.6682 73.738 23.5323V5.44308Z" fill="white"/>
<path d="M67.529 8.54377C67.529 8.40912 67.6556 8.31032 67.7862 8.34298L71.5116 9.27433C71.6037 9.29736 71.6684 9.38015 71.6684 9.47512V24.6745C71.6684 24.7694 71.6037 24.8522 71.5116 24.8752L67.7862 25.8066C67.6556 25.8393 67.529 25.7405 67.529 25.6058V8.54377Z" fill="white"/>
<path d="M87.1909 29.2405C87.1909 29.1058 87.3174 29.007 87.4481 29.0397L91.1735 29.971C91.2656 29.9941 91.3302 30.0769 91.3302 30.1718V40.1155C91.3302 40.2429 91.2161 40.3401 91.0902 40.3198L87.3648 39.7171C87.2646 39.7009 87.1909 39.6144 87.1909 39.5128V29.2405Z" fill="white"/>
<path d="M93.3999 32.345C93.3999 32.2103 93.5265 32.1115 93.6571 32.1442L97.3825 33.0755C97.4746 33.0986 97.5393 33.1814 97.5393 33.2763V38.0629C97.5393 38.1844 97.4351 38.2797 97.3141 38.269L93.5887 37.9403C93.4819 37.9309 93.3999 37.8414 93.3999 37.7342V32.345Z" fill="white"/>
<path d="M73.738 30.1718C73.738 30.0769 73.8027 29.9941 73.8948 29.971L77.6202 29.0397C77.7508 29.007 77.8774 29.1058 77.8774 29.2405V39.5711C77.8774 39.6738 77.8021 39.7609 77.7005 39.7759L73.9751 40.3237C73.8502 40.3421 73.738 40.2452 73.738 40.119V30.1718Z" fill="white"/>
<path d="M67.529 33.2763C67.529 33.1814 67.5937 33.0986 67.6858 33.0755L71.4112 32.1442C71.5418 32.1115 71.6684 32.2103 71.6684 32.345V37.7342C71.6684 37.8414 71.5864 37.9309 71.4796 37.9403L67.7542 38.269C67.6332 38.2797 67.529 38.1844 67.529 38.0629V33.2763Z" fill="white"/>
<path d="M84.0377 26.7024L84.0377 25.0465C84.0377 24.9353 84.122 24.8439 84.2332 24.8431C86.9702 24.8227 96.2852 26.2655 101.519 30.0163C101.609 30.0808 101.733 30.0641 101.802 29.9781L102.842 28.694C102.948 28.5633 103.157 28.6066 103.202 28.7686L104.649 33.9511C104.686 34.0848 104.584 34.2166 104.445 34.2136L99.0881 34.1003C98.9185 34.0967 98.825 33.9018 98.9284 33.7673L99.9202 32.4761C99.9893 32.3861 99.9727 32.2568 99.8827 32.1876C94.2462 27.8593 86.9937 26.8684 84.251 26.9119C84.1335 26.9137 84.0377 26.8199 84.0377 26.7024Z" fill="white"/>
<path d="M80.9619 26.7024L80.9619 25.0465C80.9619 24.9353 80.8776 24.8439 80.7664 24.8431C78.0294 24.8227 68.7144 26.2655 63.4805 30.0163C63.3906 30.0808 63.2667 30.0641 63.1971 29.9781L62.1574 28.694C62.0516 28.5633 61.8424 28.6066 61.7972 28.7686L60.3505 33.9511C60.3132 34.0848 60.4155 34.2166 60.5542 34.2136L65.9115 34.1003C66.081 34.0967 66.1745 33.9018 66.0712 33.7673L65.0794 32.4761C65.0103 32.3861 65.0269 32.2568 65.1169 32.1876C70.7534 27.8593 78.0059 26.8684 80.7486 26.9119C80.8661 26.9137 80.9619 26.8199 80.9619 26.7024Z" fill="white"/>
<path d="M2.86522 71.4036H0.182922V58.3647H2.86522V63.245H8.75136V58.3647H11.415V71.4036H8.75136V65.6851H2.86522V71.4036Z" fill="white"/>
<path d="M15.9752 71.4036H13.1625L18.7506 58.2902H21.3211L26.9092 71.4036H24.0593L22.774 68.3861H17.2604L15.9752 71.4036ZM20.0172 61.6431L18.0986 66.1694H21.9172L20.0172 61.6431Z" fill="white"/>
<path d="M36.081 71.4036H33.3987V58.3647H44.3141V71.4036H41.6505V60.7676H36.081V71.4036Z" fill="white"/>
<path d="M56.9845 71.4036H47.2053V58.3647H56.7796V60.7676H49.8876V63.2823H55.4384V65.6479H49.8876V69.0008H56.9845V71.4036Z" fill="white"/>
<path d="M58.2446 60.7676V58.3647H69.1786V60.7676H65.0434V71.4036H62.3611V60.7676H58.2446Z" fill="white"/>
<path d="M73.8626 71.4036H71.1803V58.3647H76.8802C78.2834 58.3647 79.3886 58.7311 80.1958 59.4637C81.0154 60.184 81.4252 61.1277 81.4252 62.295C81.4252 63.4747 81.0154 64.4247 80.1958 65.145C79.3886 65.8776 78.2834 66.244 76.8802 66.244H73.8626V71.4036ZM73.8626 60.7117V63.9528H76.6939C77.3396 63.9528 77.8426 63.8162 78.2027 63.543C78.5628 63.2574 78.7429 62.8538 78.7429 62.3323C78.7429 61.8107 78.5628 61.4133 78.2027 61.1402C77.8426 60.8545 77.3396 60.7117 76.6939 60.7117H73.8626Z" fill="white"/>
<path d="M86.8862 67.939C87.6561 68.7462 88.6185 69.1498 89.7734 69.1498C90.9159 69.1498 91.8721 68.7462 92.642 67.939C93.4119 67.1318 93.7969 66.1136 93.7969 64.8842C93.7969 63.6548 93.4119 62.6365 92.642 61.8294C91.8721 61.0222 90.9159 60.6186 89.7734 60.6186C88.6185 60.6186 87.6561 61.0222 86.8862 61.8294C86.1287 62.6241 85.75 63.6424 85.75 64.8842C85.75 66.126 86.1287 67.1443 86.8862 67.939ZM83.0118 64.8842C83.0118 62.9718 83.6513 61.3699 84.9304 60.0784C86.2095 58.7621 87.8238 58.1039 89.7734 58.1039C91.7106 58.1039 93.3188 58.7621 94.5978 60.0784C95.8893 61.3947 96.535 62.9966 96.535 64.8842C96.535 66.7593 95.8893 68.3612 94.5978 69.69C93.3188 71.0063 91.7106 71.6644 89.7734 71.6644C87.8238 71.6644 86.2095 71.0063 84.9304 69.69C83.6513 68.3736 83.0118 66.7717 83.0118 64.8842Z" fill="white"/>
<path d="M105.514 71.4036H98.9571V58.3647H105.085C106.29 58.3647 107.246 58.6503 107.954 59.2216C108.674 59.7928 109.034 60.5938 109.034 61.6245C109.034 62.2578 108.879 62.798 108.569 63.245C108.258 63.6921 107.867 64.0149 107.395 64.2136C108.103 64.3626 108.724 64.7476 109.258 65.3685C109.779 65.977 110.04 66.7531 110.04 67.6969C110.04 68.8021 109.63 69.6962 108.811 70.3792C108.004 71.0622 106.905 71.4036 105.514 71.4036ZM101.639 65.6851V69.0939H105.011C105.681 69.0939 106.203 68.9511 106.576 68.6655C106.948 68.3674 107.134 67.9452 107.134 67.3988C107.134 66.8524 106.948 66.4302 106.576 66.1322C106.203 65.8342 105.681 65.6851 105.011 65.6851H101.639ZM101.639 60.6V63.4685H104.657C105.216 63.4685 105.65 63.3443 105.961 63.096C106.284 62.8476 106.445 62.4999 106.445 62.0529C106.445 61.5934 106.284 61.2395 105.961 60.9911C105.65 60.7304 105.216 60.6 104.657 60.6H101.639Z" fill="white"/>
<path d="M118.63 71.6644C116.606 71.6644 114.924 71.0311 113.583 69.7645C112.241 68.473 111.571 66.8462 111.571 64.8842C111.571 62.8973 112.235 61.2705 113.564 60.0039C114.905 58.7373 116.594 58.1039 118.63 58.1039C119.897 58.1039 121.046 58.3771 122.076 58.9235V61.6245C121.071 60.9539 119.928 60.6186 118.649 60.6186C117.42 60.6186 116.383 61.0222 115.538 61.8294C114.719 62.6241 114.309 63.6424 114.309 64.8842C114.309 66.126 114.731 67.1505 115.576 67.9576C116.408 68.7524 117.469 69.1498 118.761 69.1498C120.189 69.1498 121.381 68.771 122.337 68.0135V70.7144C121.282 71.3478 120.046 71.6644 118.63 71.6644Z" fill="white"/>
<path d="M127.306 71.4036H124.624V58.3647H127.306V63.5058L132.112 58.3647H135.39L129.858 64.344L136.34 71.4036H132.913L127.306 65.3871V71.4036Z" fill="white"/>
<path d="M139.875 67.939C140.645 68.7462 141.607 69.1498 142.762 69.1498C143.905 69.1498 144.861 68.7462 145.631 67.939C146.401 67.1318 146.786 66.1136 146.786 64.8842C146.786 63.6548 146.401 62.6365 145.631 61.8294C144.861 61.0222 143.905 60.6186 142.762 60.6186C141.607 60.6186 140.645 61.0222 139.875 61.8294C139.118 62.6241 138.739 63.6424 138.739 64.8842C138.739 66.126 139.118 67.1443 139.875 67.939ZM136.001 64.8842C136.001 62.9718 136.64 61.3699 137.919 60.0784C139.198 58.7621 140.813 58.1039 142.762 58.1039C144.699 58.1039 146.308 58.7621 147.587 60.0784C148.878 61.3947 149.524 62.9966 149.524 64.8842C149.524 66.7593 148.878 68.3612 147.587 69.69C146.308 71.0063 144.699 71.6644 142.762 71.6644C140.813 71.6644 139.198 71.0063 137.919 69.69C136.64 68.3736 136.001 66.7717 136.001 64.8842Z" fill="white"/>
<path d="M154.628 71.4036H151.946V58.3647H154.61L158.391 63.7666L162.172 58.3647H164.817V71.4036H162.172V62.4813L159.173 66.6724H157.683L154.628 62.4813V71.4036Z" fill="white"/>
<path d="M2.88597 85.8328H0.182861V80.4573H2.70935C3.20594 80.4573 3.60015 80.5751 3.89196 80.8106C4.18889 81.046 4.33736 81.3763 4.33736 81.8012C4.33736 82.0623 4.27337 82.285 4.14538 82.4693C4.01739 82.6536 3.85612 82.7867 3.66158 82.8686C3.9534 82.93 4.20937 83.0887 4.42951 83.3447C4.64453 83.5956 4.75204 83.9155 4.75204 84.3046C4.75204 84.7603 4.5831 85.1289 4.24521 85.4104C3.91244 85.692 3.45936 85.8328 2.88597 85.8328ZM1.28868 83.4753V84.8806H2.67863C2.95509 84.8806 3.17011 84.8217 3.32369 84.704C3.47728 84.5811 3.55407 84.407 3.55407 84.1818C3.55407 83.9565 3.47728 83.7824 3.32369 83.6596C3.17011 83.5367 2.95509 83.4753 2.67863 83.4753H1.28868ZM1.28868 81.3788V82.5614H2.53273C2.76311 82.5614 2.94229 82.5102 3.07028 82.4078C3.20338 82.3055 3.26994 82.1621 3.26994 81.9778C3.26994 81.7884 3.20338 81.6425 3.07028 81.5401C2.94229 81.4326 2.76311 81.3788 2.53273 81.3788H1.28868Z" fill="white"/>
<path d="M8.29352 85.9403C7.45903 85.9403 6.76534 85.6792 6.21243 85.157C5.65952 84.6246 5.38307 83.9539 5.38307 83.1451C5.38307 82.3259 5.65696 81.6553 6.20475 81.1331C6.75766 80.6109 7.45392 80.3498 8.29352 80.3498C8.81571 80.3498 9.28927 80.4624 9.71419 80.6877V81.8012C9.29951 81.5247 8.82851 81.3865 8.3012 81.3865C7.79436 81.3865 7.36688 81.5529 7.01876 81.8857C6.68087 82.2133 6.51192 82.6331 6.51192 83.1451C6.51192 83.657 6.68599 84.0794 7.03411 84.4121C7.37712 84.7398 7.81484 84.9036 8.34727 84.9036C8.93602 84.9036 9.42749 84.7475 9.8217 84.4352V85.5487C9.38654 85.8098 8.87715 85.9403 8.29352 85.9403Z" fill="white"/>
<path d="M14.796 85.8328H10.7644V80.4573H14.7116V81.4479H11.8702V82.4846H14.1586V83.4599H11.8702V84.8422H14.796V85.8328Z" fill="white"/>
<path d="M18.7471 85.8328H17.6413V80.4573H18.7471V82.5768L20.7283 80.4573H22.0799L19.7991 82.9224L22.4715 85.8328H21.0586L18.7471 83.3524V85.8328Z" fill="white"/>
<path d="M25.7664 85.8328H23.0633V80.4573H25.5898C26.0863 80.4573 26.4806 80.5751 26.7724 80.8106C27.0693 81.046 27.2178 81.3763 27.2178 81.8012C27.2178 82.0623 27.1538 82.285 27.0258 82.4693C26.8978 82.6536 26.7365 82.7867 26.542 82.8686C26.8338 82.93 27.0898 83.0887 27.3099 83.3447C27.5249 83.5956 27.6324 83.9155 27.6324 84.3046C27.6324 84.7603 27.4635 85.1289 27.1256 85.4104C26.7928 85.692 26.3398 85.8328 25.7664 85.8328ZM24.1691 83.4753V84.8806H25.559C25.8355 84.8806 26.0505 84.8217 26.2041 84.704C26.3577 84.5811 26.4345 84.407 26.4345 84.1818C26.4345 83.9565 26.3577 83.7824 26.2041 83.6596C26.0505 83.5367 25.8355 83.4753 25.559 83.4753H24.1691ZM24.1691 81.3788V82.5614H25.4131C25.6435 82.5614 25.8227 82.5102 25.9507 82.4078C26.0838 82.3055 26.1503 82.1621 26.1503 81.9778C26.1503 81.7884 26.0838 81.6425 25.9507 81.5401C25.8227 81.4326 25.6435 81.3788 25.4131 81.3788H24.1691Z" fill="white"/>
<path d="M29.2514 85.8328H28.0918L30.3956 80.4266H31.4554L33.7591 85.8328H32.5842L32.0543 84.5888H29.7813L29.2514 85.8328ZM30.9178 81.8089L30.1268 83.6749H31.7011L30.9178 81.8089Z" fill="white"/>
<path d="M35.5755 85.8328H34.4697V80.4573H36.8196C37.3981 80.4573 37.8537 80.6083 38.1865 80.9104C38.5244 81.2073 38.6933 81.5964 38.6933 82.0776C38.6933 82.564 38.5244 82.9556 38.1865 83.2526C37.8537 83.5546 37.3981 83.7056 36.8196 83.7056H35.5755V85.8328ZM35.5755 81.4249V82.7611H36.7428C37.009 82.7611 37.2163 82.7048 37.3648 82.5921C37.5133 82.4744 37.5875 82.308 37.5875 82.093C37.5875 81.878 37.5133 81.7141 37.3648 81.6015C37.2163 81.4838 37.009 81.4249 36.7428 81.4249H35.5755Z" fill="white"/>
<path d="M39.1708 81.4479V80.4573H43.6786V81.4479H41.9738V85.8328H40.868V81.4479H39.1708Z" fill="white"/>
<path d="M45.433 85.8328H44.5038V80.4573H45.6096V83.9591L48.2129 80.4573H49.1651V85.8328H48.067V82.308L45.433 85.8328Z" fill="white"/>
<path d="M51.4591 85.8328H50.3533V80.4573H52.7031C53.2816 80.4573 53.7373 80.6083 54.07 80.9104C54.4079 81.2073 54.5769 81.5964 54.5769 82.0776C54.5769 82.564 54.4079 82.9556 54.07 83.2526C53.7373 83.5546 53.2816 83.7056 52.7031 83.7056H51.4591V85.8328ZM51.4591 81.4249V82.7611H52.6263C52.8926 82.7611 53.0999 82.7048 53.2484 82.5921C53.3968 82.4744 53.4711 82.308 53.4711 82.093C53.4711 81.878 53.3968 81.7141 53.2484 81.6015C53.0999 81.4838 52.8926 81.4249 52.6263 81.4249H51.4591Z" fill="white"/>
<path d="M61.3514 85.8328H60.2456V80.4573H61.3514V85.8328ZM57.5194 85.8328H55.4153V80.4573H56.5211V82.2312H57.5194C58.1594 82.2312 58.6662 82.4002 59.0399 82.7381C59.4137 83.0657 59.6005 83.4983 59.6005 84.0359C59.6005 84.5734 59.4137 85.006 59.0399 85.3337C58.6611 85.6664 58.1543 85.8328 57.5194 85.8328ZM56.5211 83.1681V84.8575H57.458C57.7805 84.8575 58.0314 84.7859 58.2106 84.6425C58.3949 84.4941 58.487 84.2867 58.487 84.0205C58.487 83.7492 58.3949 83.5393 58.2106 83.3908C58.0314 83.2423 57.7805 83.1681 57.458 83.1681H56.5211Z" fill="white"/>
<path d="M65.6103 85.8328H64.5045V80.4573H69.0045V85.8328H67.9064V81.4479H65.6103V85.8328Z" fill="white"/>
<path d="M74.2281 85.8328H70.1964V80.4573H74.1436V81.4479H71.3023V82.4846H73.5907V83.4599H71.3023V84.8422H74.2281V85.8328Z" fill="white"/>
<path d="M74.7476 81.4479V80.4573H79.2553V81.4479H77.5505V85.8328H76.4447V81.4479H74.7476Z" fill="white"/>
<path d="M81.1864 85.8328H80.0805V80.4573H82.4304C83.0089 80.4573 83.4646 80.6083 83.7973 80.9104C84.1352 81.2073 84.3042 81.5964 84.3042 82.0776C84.3042 82.564 84.1352 82.9556 83.7973 83.2526C83.4646 83.5546 83.0089 83.7056 82.4304 83.7056H81.1864V85.8328ZM81.1864 81.4249V82.7611H82.3536C82.6198 82.7611 82.8272 82.7048 82.9756 82.5921C83.1241 82.4744 83.1983 82.308 83.1983 82.093C83.1983 81.878 83.1241 81.7141 82.9756 81.6015C82.8272 81.4838 82.6198 81.4249 82.3536 81.4249H81.1864Z" fill="white"/>
<path d="M86.5556 84.4045C86.873 84.7372 87.2697 84.9036 87.7459 84.9036C88.2169 84.9036 88.6111 84.7372 88.9285 84.4045C89.2459 84.0717 89.4046 83.6519 89.4046 83.1451C89.4046 82.6382 89.2459 82.2184 88.9285 81.8857C88.6111 81.5529 88.2169 81.3865 87.7459 81.3865C87.2697 81.3865 86.873 81.5529 86.5556 81.8857C86.2433 82.2133 86.0871 82.6331 86.0871 83.1451C86.0871 83.657 86.2433 84.0768 86.5556 84.4045ZM84.9583 83.1451C84.9583 82.3566 85.2219 81.6962 85.7492 81.1638C86.2766 80.6211 86.9421 80.3498 87.7459 80.3498C88.5445 80.3498 89.2075 80.6211 89.7348 81.1638C90.2672 81.7065 90.5334 82.3669 90.5334 83.1451C90.5334 83.9181 90.2672 84.5785 89.7348 85.1263C89.2075 85.669 88.5445 85.9403 87.7459 85.9403C86.9421 85.9403 86.2766 85.669 85.7492 85.1263C85.2219 84.5836 84.9583 83.9232 84.9583 83.1451Z" fill="white"/>
<path d="M94.2351 85.8328H91.532V80.4573H94.0585C94.5551 80.4573 94.9493 80.5751 95.2411 80.8106C95.538 81.046 95.6865 81.3763 95.6865 81.8012C95.6865 82.0623 95.6225 82.285 95.4945 82.4693C95.3665 82.6536 95.2053 82.7867 95.0107 82.8686C95.3025 82.93 95.5585 83.0887 95.7786 83.3447C95.9937 83.5956 96.1012 83.9155 96.1012 84.3046C96.1012 84.7603 95.9322 85.1289 95.5943 85.4104C95.2616 85.692 94.8085 85.8328 94.2351 85.8328ZM92.6378 83.4753V84.8806H94.0278C94.3042 84.8806 94.5192 84.8217 94.6728 84.704C94.8264 84.5811 94.9032 84.407 94.9032 84.1818C94.9032 83.9565 94.8264 83.7824 94.6728 83.6596C94.5192 83.5367 94.3042 83.4753 94.0278 83.4753H92.6378ZM92.6378 81.3788V82.5614H93.8819C94.1122 82.5614 94.2914 82.5102 94.4194 82.4078C94.5525 82.3055 94.6191 82.1621 94.6191 81.9778C94.6191 81.7884 94.5525 81.6425 94.4194 81.5401C94.2914 81.4326 94.1122 81.3788 93.8819 81.3788H92.6378Z" fill="white"/>
<path d="M99.6427 85.9403C98.8082 85.9403 98.1145 85.6792 97.5616 85.157C97.0087 84.6246 96.7322 83.9539 96.7322 83.1451C96.7322 82.3259 97.0061 81.6553 97.5539 81.1331C98.1068 80.6109 98.803 80.3498 99.6427 80.3498C100.165 80.3498 100.638 80.4624 101.063 80.6877V81.8012C100.649 81.5247 100.178 81.3865 99.6503 81.3865C99.1435 81.3865 98.716 81.5529 98.3679 81.8857C98.03 82.2133 97.8611 82.6331 97.8611 83.1451C97.8611 83.657 98.0351 84.0794 98.3833 84.4121C98.7263 84.7398 99.164 84.9036 99.6964 84.9036C100.285 84.9036 100.777 84.7475 101.171 84.4352V85.5487C100.736 85.8098 100.226 85.9403 99.6427 85.9403Z" fill="white"/>
<path d="M103.219 85.8328H102.114V80.4573H103.219V82.5768L105.201 80.4573H106.552L104.271 82.9224L106.944 85.8328H105.531L103.219 83.3524V85.8328Z" fill="white"/>
<path d="M108.401 84.4045C108.718 84.7372 109.115 84.9036 109.591 84.9036C110.062 84.9036 110.457 84.7372 110.774 84.4045C111.091 84.0717 111.25 83.6519 111.25 83.1451C111.25 82.6382 111.091 82.2184 110.774 81.8857C110.457 81.5529 110.062 81.3865 109.591 81.3865C109.115 81.3865 108.718 81.5529 108.401 81.8857C108.089 82.2133 107.933 82.6331 107.933 83.1451C107.933 83.657 108.089 84.0768 108.401 84.4045ZM106.804 83.1451C106.804 82.3566 107.067 81.6962 107.595 81.1638C108.122 80.6211 108.788 80.3498 109.591 80.3498C110.39 80.3498 111.053 80.6211 111.58 81.1638C112.113 81.7065 112.379 82.3669 112.379 83.1451C112.379 83.9181 112.113 84.5785 111.58 85.1263C111.053 85.669 110.39 85.9403 109.591 85.9403C108.788 85.9403 108.122 85.669 107.595 85.1263C107.067 84.5836 106.804 83.9232 106.804 83.1451Z" fill="white"/>
<path d="M114.483 85.8328H113.377V80.4573H117.256V81.4479H114.483V85.8328Z" fill="white"/>
<path d="M119.17 84.4045C119.487 84.7372 119.884 84.9036 120.36 84.9036C120.831 84.9036 121.226 84.7372 121.543 84.4045C121.86 84.0717 122.019 83.6519 122.019 83.1451C122.019 82.6382 121.86 82.2184 121.543 81.8857C121.226 81.5529 120.831 81.3865 120.36 81.3865C119.884 81.3865 119.487 81.5529 119.17 81.8857C118.858 82.2133 118.702 82.6331 118.702 83.1451C118.702 83.657 118.858 84.0768 119.17 84.4045ZM117.573 83.1451C117.573 82.3566 117.836 81.6962 118.364 81.1638C118.891 80.6211 119.557 80.3498 120.36 80.3498C121.159 80.3498 121.822 80.6211 122.349 81.1638C122.882 81.7065 123.148 82.3669 123.148 83.1451C123.148 83.9181 122.882 84.5785 122.349 85.1263C121.822 85.669 121.159 85.9403 120.36 85.9403C119.557 85.9403 118.891 85.669 118.364 85.1263C117.836 84.5836 117.573 83.9232 117.573 83.1451Z" fill="white"/>
<path d="M127.524 84.4045C127.842 84.7372 128.238 84.9036 128.715 84.9036C129.186 84.9036 129.58 84.7372 129.897 84.4045C130.215 84.0717 130.373 83.6519 130.373 83.1451C130.373 82.6382 130.215 82.2184 129.897 81.8857C129.58 81.5529 129.186 81.3865 128.715 81.3865C128.238 81.3865 127.842 81.5529 127.524 81.8857C127.212 82.2133 127.056 82.6331 127.056 83.1451C127.056 83.657 127.212 84.0768 127.524 84.4045ZM125.927 83.1451C125.927 82.3566 126.191 81.6962 126.718 81.1638C127.245 80.6211 127.911 80.3498 128.715 80.3498C129.513 80.3498 130.176 80.6211 130.704 81.1638C131.236 81.7065 131.502 82.3669 131.502 83.1451C131.502 83.9181 131.236 84.5785 130.704 85.1263C130.176 85.669 129.513 85.9403 128.715 85.9403C127.911 85.9403 127.245 85.669 126.718 85.1263C126.191 84.5836 125.927 83.9232 125.927 83.1451Z" fill="white"/>
<path d="M135.227 85.9403C134.392 85.9403 133.699 85.6792 133.146 85.157C132.593 84.6246 132.316 83.9539 132.316 83.1451C132.316 82.3259 132.59 81.6553 133.138 81.1331C133.691 80.6109 134.387 80.3498 135.227 80.3498C135.749 80.3498 136.223 80.4624 136.648 80.6877V81.8012C136.233 81.5247 135.762 81.3865 135.235 81.3865C134.728 81.3865 134.3 81.5529 133.952 81.8857C133.614 82.2133 133.445 82.6331 133.445 83.1451C133.445 83.657 133.619 84.0794 133.967 84.4121C134.31 84.7398 134.748 84.9036 135.281 84.9036C135.869 84.9036 136.361 84.7475 136.755 84.4352V85.5487C136.32 85.8098 135.811 85.9403 135.227 85.9403Z" fill="white"/>
<path d="M137.337 81.4479V80.4573H141.845V81.4479H140.14V85.8328H139.034V81.4479H137.337Z" fill="white"/>
<path d="M143.776 85.8328H142.67V80.4573H145.02C145.598 80.4573 146.054 80.6083 146.387 80.9104C146.724 81.2073 146.893 81.5964 146.893 82.0776C146.893 82.564 146.724 82.9556 146.387 83.2526C146.054 83.5546 145.598 83.7056 145.02 83.7056H143.776V85.8328ZM143.776 81.4249V82.7611H144.943C145.209 82.7611 145.416 82.7048 145.565 82.5921C145.713 82.4744 145.788 82.308 145.788 82.093C145.788 81.878 145.713 81.7141 145.565 81.6015C145.416 81.4838 145.209 81.4249 144.943 81.4249H143.776Z" fill="white"/>
<path d="M149.145 84.4045C149.462 84.7372 149.859 84.9036 150.335 84.9036C150.806 84.9036 151.2 84.7372 151.518 84.4045C151.835 84.0717 151.994 83.6519 151.994 83.1451C151.994 82.6382 151.835 82.2184 151.518 81.8857C151.2 81.5529 150.806 81.3865 150.335 81.3865C149.859 81.3865 149.462 81.5529 149.145 81.8857C148.833 82.2133 148.676 82.6331 148.676 83.1451C148.676 83.657 148.833 84.0768 149.145 84.4045ZM147.548 83.1451C147.548 82.3566 147.811 81.6962 148.339 81.1638C148.866 80.6211 149.531 80.3498 150.335 80.3498C151.134 80.3498 151.797 80.6211 152.324 81.1638C152.857 81.7065 153.123 82.3669 153.123 83.1451C153.123 83.9181 152.857 84.5785 152.324 85.1263C151.797 85.669 151.134 85.9403 150.335 85.9403C149.531 85.9403 148.866 85.669 148.339 85.1263C147.811 84.5836 147.548 83.9232 147.548 83.1451Z" fill="white"/>
<path d="M156.824 85.8328H154.121V80.4573H156.648C157.144 80.4573 157.539 80.5751 157.83 80.8106C158.127 81.046 158.276 81.3763 158.276 81.8012C158.276 82.0623 158.212 82.285 158.084 82.4693C157.956 82.6536 157.795 82.7867 157.6 82.8686C157.892 82.93 158.148 83.0887 158.368 83.3447C158.583 83.5956 158.69 83.9155 158.69 84.3046C158.69 84.7603 158.521 85.1289 158.184 85.4104C157.851 85.692 157.398 85.8328 156.824 85.8328ZM155.227 83.4753V84.8806H156.617C156.893 84.8806 157.109 84.8217 157.262 84.704C157.416 84.5811 157.492 84.407 157.492 84.1818C157.492 83.9565 157.416 83.7824 157.262 83.6596C157.109 83.5367 156.893 83.4753 156.617 83.4753H155.227ZM155.227 81.3788V82.5614H156.471C156.702 82.5614 156.881 82.5102 157.009 82.4078C157.142 82.3055 157.208 82.1621 157.208 81.9778C157.208 81.7884 157.142 81.6425 157.009 81.5401C156.881 81.4326 156.702 81.3788 156.471 81.3788H155.227Z" fill="white"/>
<path d="M160.309 85.8328H159.15L161.454 80.4266H162.513L164.817 85.8328H163.642L163.112 84.5888H160.839L160.309 85.8328ZM161.976 81.8089L161.185 83.6749H162.759L161.976 81.8089Z" fill="white"/>
<line x1="0.182861" y1="77.0999" x2="164.817" y2="77.0999" stroke="url(#paint2_linear_1_1104)" stroke-width="1.02551"/>
<defs>
<linearGradient id="paint0_linear_1_1104" x1="80.0295" y1="-22.7664" x2="86.4049" y2="-22.684" gradientUnits="userSpaceOnUse">
<stop stop-color="#E2001A"/>
<stop offset="0.52851" stop-color="#CC0700"/>
<stop offset="1" stop-color="#CC0029"/>
</linearGradient>
<linearGradient id="paint1_linear_1_1104" x1="80.0295" y1="11.3832" x2="86.4042" y2="11.4898" gradientUnits="userSpaceOnUse">
<stop stop-color="#E2001A"/>
<stop offset="0.52851" stop-color="#CC0700"/>
<stop offset="1" stop-color="#CC0029"/>
</linearGradient>
<linearGradient id="paint2_linear_1_1104" x1="2.80747" y1="76.6127" x2="5.09897" y2="98.0525" gradientUnits="userSpaceOnUse">
<stop stop-color="#E2001A"/>
<stop offset="0.52851" stop-color="#CC0700"/>
<stop offset="1" stop-color="#CC0029"/>
</linearGradient>
</defs>
</svg>
