<svg width="24" height="24" viewBox="0 0 24 24" fill="none" xmlns="http://www.w3.org/2000/svg">
<path fill-rule="evenodd" clip-rule="evenodd" d="M11.212 0.105923C11.0612 0.168986 10.8603 0.274609 10.7656 0.340588C10.6708 0.406566 8.29544 2.76248 5.48689 5.57596C1.36585 9.70422 0.35682 10.7389 0.258032 10.9375C-0.194504 11.8475 -0.0443006 12.8459 0.64966 13.5403C1.08053 13.9714 1.63068 14.1949 2.26119 14.1949H2.5803V17.9547C2.5803 20.5001 2.59694 21.795 2.63186 21.9638C2.80927 22.8213 3.50253 23.5958 4.35727 23.8913C4.66905 23.9991 4.69085 24 6.95931 24C9.19648 24 9.24982 23.9979 9.37676 23.903C9.44814 23.8497 9.55018 23.7477 9.60347 23.6763C9.6985 23.549 9.70085 23.4858 9.72388 20.407L9.74738 17.2676L9.89006 17.0362C10.0679 16.7479 10.431 16.5174 10.7746 16.4746C10.9075 16.4581 11.5662 16.4516 12.2382 16.4602L13.4602 16.4757L13.7071 16.6126C13.9424 16.7431 14.0944 16.8985 14.24 17.1576C14.2943 17.2541 14.3103 17.8365 14.3296 20.4108C14.3526 23.4858 14.355 23.549 14.45 23.6763C14.5033 23.7477 14.6053 23.8497 14.6767 23.903C14.8037 23.9979 14.857 24 17.0942 24C19.3626 24 19.3844 23.9991 19.6962 23.8913C20.5509 23.5958 21.2442 22.8213 21.4216 21.9638C21.4565 21.795 21.4732 20.5001 21.4732 17.9547V14.1949H21.7923C22.6761 14.1949 23.4464 13.7233 23.8263 12.9496C23.9858 12.6249 23.9875 12.6148 23.9875 11.9846C23.9875 10.9121 24.5279 11.5489 18.4951 5.51219C12.4965 -0.490191 13.0974 0.0254598 12.0751 0.00373333C11.541 -0.0076472 11.4608 0.00185226 11.212 0.105923ZM12.3761 1.44953C12.6498 1.58276 22.4764 11.4252 22.5758 11.6657C22.674 11.9033 22.6666 12.1048 22.5508 12.3442C22.3762 12.705 22.2315 12.7568 21.3237 12.7841C20.4705 12.8096 20.41 12.8281 20.1837 13.1313C20.0879 13.2597 20.0865 13.3103 20.0633 17.5255L20.0398 21.7897L19.9095 22.0115C19.8378 22.1335 19.7095 22.2865 19.6243 22.3515C19.2971 22.6012 19.1996 22.6127 17.402 22.6127H15.7395V19.9815C15.7395 18.2551 15.7218 17.2646 15.688 17.1011C15.5054 16.2188 14.7928 15.4559 13.8831 15.1687C13.572 15.0705 13.4715 15.0649 12.0267 15.0649C10.3446 15.0649 10.2606 15.0761 9.65583 15.3808C9.06319 15.6795 8.5059 16.4225 8.36552 17.1011C8.33168 17.2646 8.31396 18.2551 8.31396 19.9815V22.6127H6.65148C4.85389 22.6127 4.75642 22.6012 4.42922 22.3515C4.34402 22.2865 4.21567 22.1335 4.144 22.0115L4.01372 21.7897L3.99022 17.5255C3.967 13.3104 3.96559 13.2597 3.86981 13.1314C3.64352 12.8281 3.58299 12.8096 2.72976 12.7841C1.82196 12.7568 1.67725 12.705 1.50271 12.3442C1.38686 12.1048 1.37943 11.9033 1.47766 11.6657C1.57489 11.4304 11.4015 1.58534 11.6743 1.44991C11.9127 1.33154 12.1335 1.33145 12.3761 1.44953Z" fill="url(#paint0_linear_200_268)"/>
<defs>
<linearGradient id="paint0_linear_200_268" x1="0.382609" y1="-24" x2="29.8639" y2="-22.3245" gradientUnits="userSpaceOnUse">
<stop stop-color="#E2001A"/>
<stop offset="0.52851" stop-color="#CC0700"/>
<stop offset="1" stop-color="#CC0029"/>
</linearGradient>
</defs>
</svg>
