<svg width="24" height="24" viewBox="0 0 24 24" fill="none" xmlns="http://www.w3.org/2000/svg">
<path fill-rule="evenodd" clip-rule="evenodd" d="M11.4764 0.0595723C11.1414 0.158636 10.803 0.377951 10.5697 0.647178C10.429 0.809538 9.96674 1.72896 9.00769 3.75418C8.2585 5.33621 7.6135 6.65731 7.57435 6.68998C7.53515 6.72266 6.15796 6.95097 4.51387 7.19728C2.71414 7.46688 1.4182 7.68593 1.25715 7.74771C0.693295 7.9641 0.279999 8.42061 0.0952366 9.03119C-0.0830269 9.62032 -0.010245 10.2019 0.306928 10.7228C0.389847 10.859 1.43837 11.9647 2.63693 13.1799C3.8355 14.3951 4.82606 15.4298 4.83817 15.4793C4.85033 15.5287 4.6309 16.9592 4.35058 18.6582C4.07027 20.3571 3.84023 21.8585 3.83945 21.9947C3.83643 22.5257 4.15683 23.2272 4.54257 23.5339C4.84404 23.7736 5.2811 23.9533 5.63451 23.9829C6.22804 24.0326 6.01453 24.1338 10.5095 21.6712C11.2767 21.251 11.9491 20.9071 12.0039 20.9071C12.0585 20.9071 13.3258 21.5768 14.82 22.3953C16.6769 23.4124 17.6261 23.9034 17.8193 23.9464C18.9257 24.193 20.0458 23.3239 20.1406 22.1453C20.1631 21.866 20.0705 21.2107 19.6486 18.6617C19.3251 16.7072 19.1454 15.49 19.1727 15.4373C19.1967 15.3906 20.19 14.366 21.38 13.1604C22.57 11.9548 23.6112 10.8574 23.6938 10.7217C24.0103 10.2019 24.0829 9.61988 23.9048 9.03119C23.7201 8.42083 23.3073 7.96469 22.7429 7.74738C22.5811 7.68511 21.2934 7.46678 19.4861 7.19527C17.8421 6.94826 16.4637 6.71947 16.4232 6.68684C16.3826 6.65422 15.7362 5.3315 14.9867 3.74746C13.4888 0.581985 13.4397 0.500317 12.8564 0.20096C12.4711 0.00321229 11.8738 -0.0579705 11.4764 0.0595723ZM12.1407 1.7663C12.1951 1.80239 13.5781 4.65729 14.6143 6.87277C15.2045 8.13448 15.5061 8.35027 16.9908 8.573C17.4911 8.64806 18.8012 8.84445 19.902 9.00946C21.0029 9.17448 21.991 9.33489 22.098 9.36594C22.3214 9.43086 22.4045 9.6207 22.2863 9.79579C22.2473 9.85345 21.2328 10.8978 20.0317 12.1165C17.6674 14.5158 17.6275 14.5654 17.5123 15.2505C17.4525 15.6064 17.4295 15.4461 18.269 20.5401C18.5098 22.0014 18.514 22.0457 18.4215 22.1523C18.3691 22.2126 18.2874 22.2619 18.2399 22.2619C18.1924 22.2619 16.9509 21.6039 15.4811 20.7997C14.0113 19.9955 12.7044 19.3005 12.577 19.2553C12.2281 19.1313 11.6681 19.1506 11.3242 19.2984C11.1669 19.366 9.87223 20.0605 8.44711 20.8416C7.02199 21.6228 5.81495 22.2619 5.76484 22.2619C5.71472 22.2619 5.63066 22.2124 5.5781 22.1518C5.48489 22.0444 5.49518 21.9651 5.99628 18.9409C6.29734 17.1242 6.50794 15.7055 6.50482 15.515C6.49858 15.1317 6.37792 14.7349 6.1732 14.4247C6.09215 14.3019 5.07154 13.2336 3.90521 12.0507C2.73883 10.8678 1.75269 9.85291 1.71375 9.79541C1.59522 9.62059 1.67861 9.4307 1.90205 9.36675C2.00898 9.33613 3.40655 9.11433 5.00775 8.87382C7.58782 8.48635 7.95453 8.41931 8.23095 8.28464C8.55893 8.12478 8.86852 7.83951 9.05879 7.52167C9.12123 7.41735 9.75276 6.10048 10.4621 4.59529C11.1715 3.09011 11.7888 1.82813 11.8339 1.79085C11.9264 1.71438 12.0477 1.70468 12.1407 1.7663Z" fill="#999999"/>
</svg>
