<svg width="16" height="11" viewBox="0 0 16 11" fill="none" xmlns="http://www.w3.org/2000/svg">
<path d="M12.964 10.4781L12.964 10.4781C12.9639 10.4781 12.9657 10.4774 12.9696 10.4755C12.9734 10.4737 12.9784 10.4711 12.9845 10.4678C12.9969 10.461 13.011 10.4525 13.0252 10.443C13.0324 10.4382 13.039 10.4336 13.045 10.4293L13.0542 6.83725L13.0542 6.83698L13.0639 2.04363L13.0659 1.05088L13.8624 1.64351L14.417 2.05619C14.5959 2.18934 14.7395 2.2905 14.8482 2.36115C14.9389 2.42011 14.9854 2.44451 14.9993 2.45178C15.0041 2.45429 15.005 2.45476 15.0024 2.45389C15.1925 2.51855 15.3581 2.46815 15.4351 2.40837C15.4387 2.40559 15.4419 2.40295 15.4448 2.40047C15.433 2.38995 15.4192 2.37788 15.4033 2.3642C15.3314 2.30229 15.2308 2.2198 15.1083 2.12207C14.8641 1.92732 14.5452 1.682 14.2219 1.43909C13.8987 1.19618 13.5743 0.958192 13.3194 0.777882C13.1914 0.687403 13.0842 0.613773 13.0048 0.561954C12.971 0.539885 12.9451 0.523677 12.9265 0.512593C12.8901 0.505198 12.8345 0.498968 12.7673 0.500146C12.6956 0.501404 12.6403 0.510571 12.6089 0.518752C12.6083 0.519075 12.6078 0.519408 12.6072 0.519751C12.5863 0.532154 12.5557 0.551458 12.5146 0.578571C12.433 0.63244 12.3242 0.707845 12.1953 0.799643C11.9384 0.98267 11.6138 1.22233 11.2916 1.46571C10.9695 1.70912 10.6531 1.95375 10.4125 2.14657C10.2918 2.24336 10.1934 2.32446 10.124 2.38459C10.1174 2.3903 10.1112 2.39569 10.1054 2.40078C10.1087 2.40357 10.1124 2.40652 10.1165 2.40963C10.1966 2.46972 10.3614 2.51675 10.5462 2.45389L10.5463 2.45386C10.5436 2.45476 10.5445 2.45432 10.5493 2.45178C10.5632 2.44451 10.6097 2.42011 10.7004 2.36115C10.8091 2.2905 10.9527 2.18934 11.1316 2.05619L11.6862 1.64351L12.4827 1.05088L12.4847 2.04363L12.4944 6.83476L12.4944 6.83503L12.5036 10.4301C12.5295 10.4533 12.5485 10.4634 12.5648 10.4702C12.592 10.4815 12.6439 10.4961 12.7526 10.5004L12.964 10.4781ZM12.964 10.4781C12.9151 10.4977 12.9033 10.4992 12.898 10.4999M12.964 10.4781L12.898 10.4999M12.898 10.4999C12.8978 10.5 12.8976 10.5 12.8974 10.5M12.898 10.4999L12.8974 10.5M12.8974 10.5C12.8832 10.502 12.8514 10.5044 12.7526 10.5004L12.8974 10.5ZM10.0452 2.45603C10.0419 2.45976 10.0399 2.46175 10.0398 2.4618C10.0396 2.46185 10.0413 2.46 10.0452 2.45603ZM12.9016 0.498468C12.9015 0.498407 12.9028 0.499047 12.9057 0.500584C12.9031 0.499301 12.9016 0.498529 12.9016 0.498468ZM15.4931 2.44577C15.493 2.44574 15.4919 2.44461 15.49 2.44247C15.4922 2.44474 15.4932 2.44581 15.4931 2.44577ZM13.1037 0.0423546C12.9095 -0.0184841 12.6053 -0.0131588 12.4199 0.0543585L13.1037 0.0423546ZM8.20187 9.98046L8.20193 9.98049C8.20193 9.98049 8.20347 9.98129 8.20658 9.9831C8.20994 9.98506 8.21438 9.98776 8.2198 9.99125C8.23083 9.99834 8.2436 10.0072 8.2568 10.0171C8.26227 10.0212 8.2675 10.0252 8.27242 10.0291C8.27244 10.0338 8.27245 10.0388 8.27245 10.0441C8.27245 10.0489 8.27245 10.0534 8.27243 10.0577C8.26684 10.0618 8.26069 10.0661 8.25407 10.0705C8.24013 10.0798 8.22648 10.088 8.21466 10.0944C8.20345 10.1005 8.19727 10.1032 8.19649 10.1036C8.1964 10.1036 8.19638 10.1036 8.19643 10.1036L8.11902 10.1342L4.35884 10.127L0.621946 10.1198L0.589521 10.1033C0.589522 10.1033 0.587982 10.1025 0.584869 10.1007C0.581504 10.0987 0.577057 10.096 0.571633 10.0926C0.560602 10.0855 0.547825 10.0766 0.534623 10.0667C0.529142 10.0626 0.523903 10.0586 0.518976 10.0546C0.51896 10.0506 0.518952 10.0463 0.518952 10.0419C0.518952 10.0374 0.51896 10.0332 0.518976 10.0291C0.523898 10.0252 0.529133 10.0212 0.534607 10.0171C0.547805 10.0072 0.560576 9.99834 0.571603 9.99125C0.577024 9.98776 0.581467 9.98506 0.584829 9.9831C0.585637 9.98263 0.586338 9.98223 0.586934 9.98189C0.58859 9.98095 0.589431 9.98051 0.58947 9.98049L0.58954 9.98046L0.621521 9.96421H4.3957H8.16989L8.20187 9.98046ZM0.619391 7.10827L0.619338 7.10825C0.547987 7.07945 0.515406 7.05346 0.50311 7.04153C0.504233 7.04 0.505638 7.03821 0.507386 7.03616C0.521847 7.01915 0.557941 6.98803 0.628302 6.96267C0.635006 6.96168 0.649593 6.95985 0.67632 6.95779C0.752517 6.95191 0.887148 6.947 1.14393 6.94354C1.65286 6.93668 2.59207 6.93588 4.38759 6.93559C6.04992 6.93532 6.99261 6.93647 7.53525 6.94246C7.80773 6.94547 7.97188 6.94964 8.07325 6.95495C8.12366 6.95759 8.15075 6.9603 8.1622 6.96154C8.22823 6.98495 8.26699 7.01541 8.28472 7.03497C8.28666 7.03711 8.28826 7.03899 8.28957 7.04063C8.28875 7.04165 8.28745 7.04311 8.28551 7.04503C8.27174 7.05864 8.22525 7.09405 8.11474 7.12416C8.10586 7.12443 8.09526 7.12472 8.08282 7.12502C8.02953 7.12629 7.95193 7.12753 7.85155 7.1287C7.65131 7.13103 7.36667 7.13301 7.01811 7.13454C6.3213 7.13759 5.37247 7.13882 4.34 7.13748L0.679919 7.1327L0.619391 7.10827ZM0.499334 7.04745C0.499146 7.04807 0.498992 7.04838 0.498964 7.04838L0.499334 7.04745ZM8.17202 3.95821L8.17205 3.95822C8.25101 3.9901 8.28116 4.01693 8.28945 4.02559C8.28805 4.02737 8.28633 4.02944 8.28423 4.03179C8.26677 4.05134 8.23024 4.08045 8.17 4.10343C8.15699 4.10472 8.12957 4.10721 8.08158 4.10963C7.9776 4.11488 7.80988 4.11904 7.53535 4.12212C6.98848 4.12827 6.04555 4.12993 4.40375 4.13041C4.21761 4.13046 4.04043 4.13053 3.87175 4.1306C2.16414 4.13125 1.32769 4.13157 0.890951 4.11449C0.773079 4.10988 0.693276 4.10429 0.637968 4.09822C0.611862 4.09535 0.593927 4.09266 0.582253 4.09061C0.573058 4.084 0.559504 4.07435 0.540277 4.06066L0.2503 4.46799L0.540273 4.06066C0.524279 4.04927 0.513181 4.0402 0.50572 4.03354C0.506001 4.03106 0.506319 4.02947 0.506532 4.02859C0.506792 4.02823 0.507194 4.02771 0.507782 4.027C0.512569 4.02126 0.537087 3.99547 0.609015 3.9652L0.683401 3.9339H4.3957H8.1118L8.17202 3.95821ZM0.492286 4.02004C0.492299 4.02005 0.492406 4.02018 0.492593 4.02044L0.492286 4.02004ZM8.20187 0.963166L8.20194 0.963202C8.20204 0.963258 8.20358 0.964062 8.20658 0.965807C8.20994 0.967766 8.21438 0.970469 8.2198 0.973956C8.23083 0.981048 8.2436 0.989901 8.2568 0.999782C8.26227 1.00388 8.2675 1.00792 8.27242 1.01182C8.27244 1.01655 8.27245 1.02153 8.27245 1.02679C8.27245 1.03156 8.27245 1.0361 8.27243 1.04042C8.26684 1.04448 8.26069 1.04878 8.25407 1.05319C8.24013 1.06247 8.22648 1.07069 8.21466 1.07714C8.20219 1.08394 8.19594 1.08648 8.19643 1.08629L8.11902 1.11693L4.35884 1.1097L0.621945 1.10249L0.589466 1.086C0.589841 1.08619 0.588324 1.08543 0.58487 1.08342C0.581504 1.08145 0.577058 1.07875 0.571633 1.07526C0.560602 1.06816 0.547825 1.0593 0.534623 1.04942C0.529143 1.04531 0.523903 1.04127 0.518976 1.03736C0.51896 1.0333 0.518952 1.02905 0.518952 1.02459C0.518952 1.02014 0.518961 1.01589 0.518976 1.01183C0.523899 1.00792 0.529133 1.00388 0.534608 0.999782C0.547806 0.989901 0.560577 0.981047 0.571603 0.973955C0.577024 0.970469 0.581468 0.967766 0.58483 0.965807C0.586209 0.965004 0.587278 0.9644 0.588041 0.963977C0.588977 0.963458 0.589452 0.96321 0.589471 0.9632L0.589538 0.963166L0.62152 0.946922H4.3957H8.16989L8.20187 0.963166Z" fill="#333333" stroke="black"/>
</svg>
