<svg width="16" height="11" viewBox="0 0 16 11" fill="none" xmlns="http://www.w3.org/2000/svg">
<path fill-rule="evenodd" clip-rule="evenodd" d="M13.15 0.0603747C13.243 0.0976274 13.3698 0.182108 13.4317 0.248132L13.5445 0.368146L13.5542 4.1643L13.5639 8.95792L14.1185 8.54524C14.4849 8.27258 14.7302 8.11314 14.8414 8.07532C15.5281 7.84166 16.2112 8.37196 15.875 8.87781C15.753 9.06142 13.3136 10.8944 13.1037 10.9602C12.9095 11.021 12.6053 11.0157 12.4199 10.9482C12.1893 10.8643 9.7584 9.02766 9.65888 8.8622C9.3545 8.3561 10.0338 7.8462 10.7072 8.07532C10.8184 8.11314 11.0636 8.27258 11.4301 8.54524L11.9847 8.95792L11.9944 4.16653L12.0041 0.37257L12.1069 0.262249C12.2711 0.0858204 12.444 0.0140766 12.7326 0.00255135C12.939 -0.00567693 13.0095 0.00407296 13.15 0.0603747ZM8.3805 0.434097C8.47209 0.470364 8.59776 0.554056 8.65975 0.620079C8.76152 0.728456 8.77245 0.761284 8.77245 0.958481C8.77245 1.15069 8.76017 1.19006 8.66974 1.28713C8.61328 1.3478 8.50463 1.42916 8.42829 1.4679L8.28958 1.53835H4.3957H0.501822L0.363119 1.4679C0.286779 1.42916 0.178132 1.3478 0.121666 1.28713C0.0314636 1.19028 0.0189524 1.15049 0.0189524 0.960679C0.0189524 0.770865 0.0314636 0.731076 0.121666 0.634225C0.178132 0.573555 0.28678 0.492203 0.363082 0.453456L0.501822 0.383009L4.35787 0.375569L8.21392 0.368158L8.3805 0.434097ZM8.19036 3.38196C8.58036 3.47205 8.79124 3.68055 8.79124 3.97606C8.79124 4.2124 8.59389 4.43008 8.29466 4.52383C8.1715 4.56241 7.70982 4.56751 4.38751 4.56698C0.80057 4.56638 0.612838 4.56385 0.469776 4.51417C0.180347 4.41365 0.0001688 4.20172 0.0001688 3.96175C0.0001688 3.72752 0.148527 3.54515 0.432208 3.43066L0.582482 3.36999L4.33935 3.36508C6.40563 3.36241 8.13859 3.36999 8.19036 3.38196ZM8.30285 6.41597C8.59629 6.51133 8.79124 6.72952 8.79124 6.96259C8.79124 7.21127 8.64878 7.39111 8.3592 7.50799L8.20892 7.56866H4.3957H0.582482L0.415077 7.49822C0.163443 7.39232 0.0258274 7.22728 0.0073061 7.00923C-0.00971222 6.80879 0.0620813 6.66857 0.2503 6.53458C0.491755 6.36269 0.280618 6.37094 4.40389 6.37215C7.68537 6.37311 8.1883 6.37878 8.30285 6.41597ZM8.3805 9.45139C8.47209 9.48766 8.59776 9.57135 8.65975 9.63737C8.76152 9.74575 8.77245 9.77858 8.77245 9.97577C8.77245 10.168 8.76017 10.2073 8.66974 10.3044C8.61328 10.3651 8.50463 10.4464 8.42829 10.4852L8.28958 10.5556H4.3957H0.501822L0.363119 10.4852C0.286779 10.4464 0.178132 10.3651 0.121666 10.3044C0.0314636 10.2076 0.0189524 10.1678 0.0189524 9.97797C0.0189524 9.78816 0.0314636 9.74837 0.121666 9.65152C0.178132 9.59085 0.28678 9.50949 0.363082 9.47075L0.501822 9.4003L4.35787 9.39286L8.21392 9.38545L8.3805 9.45139Z" fill="#333333"/>
</svg>
